<?xml version="1.0" standalone="no"?>
<!DOCTYPE svg PUBLIC "-//W3C//DTD SVG 20010904//EN"
 "http://www.w3.org/TR/2001/REC-SVG-20010904/DTD/svg10.dtd">
<svg version="1.0" xmlns="http://www.w3.org/2000/svg"
 width="972.000000pt" height="1801.000000pt" viewBox="0 0 972.000000 1801.000000"
 preserveAspectRatio="xMidYMid meet">

<g transform="translate(0.000000,1801.000000) scale(0.100000,-0.100000)"
fill="#ffffff" stroke="none">
<path d="M5360 17499 c-383 -57 -628 -148 -915 -337 -159 -105 -221 -154 -338
-269 -141 -138 -228 -268 -276 -411 -60 -177 -44 -521 35 -762 57 -174 207
-412 286 -455 l37 -19 78 22 c43 12 124 45 180 72 277 133 450 314 543 567 42
118 59 214 70 409 l10 175 42 57 c100 136 317 337 452 417 164 98 325 158 516
191 131 22 427 15 552 -15 131 -30 355 -124 471 -198 21 -13 41 -22 44 -20 13
14 -232 206 -369 291 -182 111 -478 225 -693 265 -238 45 -512 53 -725 20z"/>
<path d="M5790 16654 c-131 -16 -560 -142 -560 -164 0 -12 67 -59 310 -214
118 -76 278 -178 355 -228 77 -50 219 -140 315 -200 96 -61 187 -122 202 -136
44 -41 85 -170 59 -186 -22 -14 -86 -12 -186 5 -167 29 -516 37 -660 14 -216
-33 -407 -112 -655 -270 -198 -125 -354 -294 -445 -479 -80 -162 -95 -278 -37
-293 56 -14 283 43 461 116 81 34 86 33 141 -24 80 -84 206 -152 360 -192 75
-20 128 -26 257 -30 210 -7 237 -3 319 54 194 133 425 185 961 219 l103 6 53
52 c120 116 214 376 247 685 25 232 -43 403 -240 599 -165 164 -308 254 -982
615 l-86 47 -129 4 c-70 2 -144 2 -163 0z"/>
<path d="M1355 15902 c-66 -25 -86 -36 -170 -93 -123 -83 -325 -312 -325 -368
0 -27 79 -128 140 -180 54 -45 177 -107 705 -352 421 -195 609 -290 613 -310
2 -9 -5 -20 -15 -25 -32 -14 -362 -17 -479 -4 l-111 12 -260 -193 c-143 -107
-316 -235 -386 -286 -69 -50 -133 -103 -143 -118 -16 -25 -16 -27 2 -52 21
-27 63 -51 252 -142 61 -30 112 -60 112 -66 0 -17 -31 -43 -170 -140 -153
-108 -230 -172 -230 -191 0 -22 65 -47 235 -92 244 -65 209 -70 323 40 162
155 416 315 893 563 134 70 283 150 332 178 97 57 97 57 148 232 22 73 24 99
24 305 0 248 -4 274 -71 418 -90 197 -249 372 -469 521 -129 86 -250 148 -515
261 -206 89 -219 93 -300 97 -66 3 -96 -1 -135 -15z"/>
<path d="M3254 13171 c-44 -11 -70 -31 -240 -186 -82 -74 -171 -146 -198 -160
-63 -32 -167 -34 -276 -5 -137 36 -151 29 -187 -86 -27 -88 -24 -416 5 -609
34 -219 77 -351 121 -375 39 -21 66 6 128 127 116 229 188 250 407 116 110
-67 185 -105 251 -128 48 -16 193 -45 225 -45 9 0 34 36 59 85 80 154 187 245
288 245 96 0 192 -52 326 -177 86 -80 111 -92 154 -70 98 51 264 322 280 458
l6 49 -124 123 c-269 268 -573 472 -859 577 -134 49 -301 77 -366 61z"/>
<path d="M3405 11258 c-11 -6 -67 -46 -125 -88 -58 -43 -120 -85 -139 -95 -46
-23 -117 -16 -242 24 -111 36 -142 38 -185 12 -36 -22 -75 -95 -218 -405 -200
-432 -366 -823 -366 -861 0 -21 40 -45 75 -45 47 0 81 27 268 208 96 92 203
188 238 211 l64 43 255 -6 c140 -3 332 -9 425 -12 285 -10 786 20 1590 97 482
45 519 51 633 99 170 73 302 153 302 185 0 26 9 25 -609 55 -683 33 -1086 150
-1686 488 -146 83 -187 102 -220 102 -22 0 -49 -6 -60 -12z"/>
<path d="M5279 10225 c-193 -199 -387 -319 -664 -410 -260 -86 -485 -116 -874
-116 -264 0 -363 8 -681 55 -101 15 -165 20 -185 15 -36 -10 -81 -59 -178
-194 -112 -155 -199 -294 -195 -313 5 -28 67 -54 116 -49 23 3 92 28 152 57
l109 53 73 -32 c40 -18 179 -84 308 -147 242 -117 315 -143 517 -179 122 -22
406 -31 517 -16 319 43 715 277 907 538 54 73 123 219 155 328 40 140 47 420
10 470 -11 15 -20 9 -87 -60z"/>
<path d="M9077 9454 c-20 -6 -36 -36 -70 -125 -168 -447 -590 -853 -1212
-1167 -426 -215 -850 -366 -1450 -516 -382 -95 -420 -101 -665 -101 -184 1
-230 4 -315 23 -119 26 -256 70 -459 146 -149 56 -534 178 -681 216 -126 32
-263 25 -459 -26 -133 -34 -191 -62 -396 -190 -217 -136 -245 -149 -326 -147
-162 3 -294 75 -582 315 -156 131 -292 228 -318 228 -27 0 -13 -28 87 -175
303 -445 554 -690 804 -784 54 -21 86 -24 315 -31 266 -9 392 -24 565 -66 167
-41 879 -257 1010 -305 147 -55 269 -167 401 -369 211 -324 381 -727 644
-1535 214 -657 268 -804 318 -879 41 -59 52 -63 105 -35 116 60 407 323 584
526 321 367 747 990 1140 1668 585 1009 1061 2030 1210 2594 113 430 94 626
-69 705 -51 25 -145 40 -181 30z"/>
<path d="M7830 2691 c-106 -41 -160 -93 -221 -211 l-34 -65 0 -145 0 -146 37
-76 c46 -91 99 -147 180 -188 57 -28 68 -30 173 -30 107 0 115 2 175 32 72 37
129 97 174 183 l31 60 0 160 0 160 -33 65 c-40 78 -101 143 -162 175 -89 45
-240 58 -320 26z m236 -139 c48 -24 75 -54 103 -109 18 -37 21 -61 22 -171 1
-146 -11 -191 -70 -250 -49 -48 -94 -64 -173 -60 -82 4 -137 38 -183 113 -30
48 -30 50 -30 189 0 137 1 143 29 193 29 53 80 97 132 113 42 14 126 5 170
-18z"/>
<path d="M3983 2679 c10 -36 300 -824 306 -830 3 -4 45 -9 93 -13 78 -5 88 -4
97 12 9 18 191 508 272 735 32 91 36 109 23 114 -15 6 -143 -1 -148 -8 -1 -2
-51 -141 -111 -309 -59 -168 -113 -316 -120 -329 -11 -23 -14 -19 -45 60 -32
85 -210 579 -210 586 0 1 -37 3 -81 3 -78 0 -81 -1 -76 -21z"/>
<path d="M5300 2688 c-6 -245 -3 -849 5 -852 18 -6 511 -7 538 -1 26 7 27 10
27 71 l0 64 -215 0 -215 0 0 125 0 125 185 0 c102 0 185 3 185 8 6 97 4 122
-10 122 -8 0 -91 1 -185 3 l-170 2 -3 107 -3 108 208 2 208 3 1 63 1 62 -279
0 c-216 0 -278 -3 -278 -12z"/>
<path d="M6402 2269 l3 -434 70 0 70 0 3 173 2 172 83 0 82 0 44 -72 c25 -40
71 -117 103 -170 57 -94 60 -97 101 -103 52 -8 123 0 120 12 -1 5 -38 66 -82
136 -116 183 -137 227 -107 227 22 0 99 80 121 125 33 69 32 134 -3 208 -58
124 -119 147 -410 154 l-202 6 2 -434z m421 277 c44 -18 57 -41 57 -100 0
-105 -32 -125 -208 -129 l-117 -2 -3 129 -3 129 119 -6 c70 -3 134 -12 155
-21z"/>
<path d="M5841 1208 c-58 -10 -145 -63 -186 -113 -36 -44 -78 -124 -90 -170
-12 -50 -6 -266 9 -323 28 -105 104 -194 206 -241 46 -21 70 -25 145 -25 76 0
101 4 158 28 l69 28 36 -34 c104 -98 107 -99 140 -71 21 18 21 18 -38 83 -35
37 -60 73 -60 86 0 12 11 46 24 75 49 112 63 283 32 397 -26 96 -96 194 -170
237 -68 39 -189 59 -275 43z m134 -69 c80 -15 130 -42 165 -90 48 -67 72 -143
78 -250 5 -106 -7 -177 -42 -245 l-21 -42 -65 74 c-36 40 -71 75 -79 79 -8 3
-24 -4 -37 -16 l-23 -21 70 -82 c38 -44 68 -85 66 -91 -8 -26 -82 -48 -156
-47 -132 1 -219 65 -272 199 -30 77 -33 241 -6 319 41 118 103 180 207 208 30
8 55 15 56 15 0 1 27 -4 59 -10z"/>
<path d="M4056 1201 c-3 -5 -5 -200 -5 -435 l1 -426 44 0 44 0 2 361 3 362
194 -289 c283 -421 294 -434 343 -434 l28 0 0 435 0 435 -40 0 -40 0 -1 -267
c-1 -148 -4 -309 -8 -359 l-6 -91 -155 231 c-212 316 -317 464 -340 476 -23
12 -57 13 -64 1z"/>
<path d="M5110 775 l0 -435 40 0 40 0 0 435 0 435 -40 0 -40 0 0 -435z"/>
<path d="M6657 1203 c-3 -4 -2 -150 2 -324 l7 -316 28 -56 c90 -186 361 -236
519 -97 95 83 105 134 108 532 l2 263 -41 3 -41 3 -3 -318 c-3 -304 -4 -320
-25 -358 -50 -92 -114 -129 -223 -130 -98 0 -161 30 -207 98 -40 59 -43 92
-46 437 l-2 265 -37 3 c-20 2 -38 -1 -41 -5z"/>
<path d="M7736 1194 c-3 -9 -6 -204 -5 -435 l1 -419 274 0 274 0 0 35 0 35
-233 0 -233 0 3 171 3 171 188 -1 c103 -1 193 3 200 8 8 4 12 19 10 32 l-3 24
-197 3 c-197 2 -198 3 -199 25 0 12 -1 84 -2 159 l-2 138 228 0 227 0 0 35 0
35 -264 0 c-232 0 -265 -2 -270 -16z"/>
</g>
</svg>
