<?xml version="1.0" standalone="no"?>
<!DOCTYPE svg PUBLIC "-//W3C//DTD SVG 20010904//EN"
 "http://www.w3.org/TR/2001/REC-SVG-20010904/DTD/svg10.dtd">
<svg version="1.0" xmlns="http://www.w3.org/2000/svg"
 width="2167.000000pt" height="2233.000000pt" viewBox="0 0 2167.000000 2233.000000"
 preserveAspectRatio="xMidYMid meet">

<g transform="translate(0.000000,2233.000000) scale(0.100000,-0.100000)"
fill="#000000" stroke="none">
<path d="M10930 17833 c-83 -6 -254 -34 -333 -54 -343 -86 -734 -358 -873
-605 -61 -109 -75 -165 -80 -309 -7 -257 66 -494 206 -662 69 -83 73 -84 176
-49 219 74 385 206 472 375 66 127 92 236 97 419 l4 113 42 57 c62 84 204 220
287 275 213 142 461 204 714 179 60 -7 142 -21 181 -33 80 -24 229 -91 295
-133 24 -15 46 -25 48 -23 8 7 -137 126 -230 188 -238 160 -542 256 -831 263
-71 2 -150 1 -175 -1z"/>
<path d="M11050 17171 c-47 -11 -132 -36 -190 -56 -58 -20 -113 -39 -122 -42
-29 -9 -21 -19 45 -61 34 -22 184 -118 332 -214 149 -96 322 -206 386 -246
108 -66 118 -76 138 -121 25 -59 27 -87 5 -95 -26 -10 -85 -6 -154 10 -36 8
-133 17 -216 21 -279 11 -483 -44 -709 -191 -44 -29 -96 -62 -115 -74 -49 -29
-157 -144 -210 -222 -77 -114 -123 -255 -96 -298 18 -30 174 1 348 70 l78 31
53 -51 c120 -113 301 -168 527 -161 113 4 117 5 157 37 121 96 341 151 672
168 l134 7 39 35 c96 87 175 311 192 548 11 152 -39 274 -165 404 -118 121
-240 201 -594 391 l-230 123 -110 3 c-79 2 -134 -3 -195 -16z"/>
<path d="M7813 16622 c-56 -20 -112 -54 -182 -111 -61 -49 -191 -207 -191
-232 0 -33 107 -151 164 -180 28 -14 248 -118 489 -229 242 -112 441 -210 444
-217 3 -8 1 -19 -4 -24 -16 -16 -253 -23 -355 -9 l-94 12 -165 -124 c-90 -68
-223 -165 -296 -217 -73 -51 -135 -101 -138 -111 -12 -37 14 -57 147 -117 72
-33 134 -65 136 -71 4 -14 -7 -23 -168 -135 -74 -52 -136 -101 -138 -111 -5
-22 42 -41 210 -83 l137 -35 68 69 c114 116 342 257 748 464 127 65 235 126
242 136 6 10 24 59 39 108 25 82 28 105 28 255 1 156 -1 169 -27 245 -93 266
-328 476 -695 624 -70 29 -152 64 -182 78 -71 35 -147 40 -217 15z"/>
<path d="M9213 14566 c-18 -8 -84 -65 -147 -126 -66 -63 -133 -119 -158 -130
-56 -26 -121 -25 -214 2 -91 27 -101 22 -128 -53 -58 -161 12 -728 94 -754 33
-11 52 8 91 94 45 98 78 137 126 150 49 14 96 -3 199 -70 100 -66 195 -103
289 -113 l60 -7 35 68 c43 85 113 157 169 174 86 26 190 -21 301 -134 72 -74
88 -74 161 1 63 65 144 217 155 289 6 42 6 43 -67 119 -148 154 -350 304 -528
393 -176 89 -365 130 -438 97z"/>
<path d="M9350 13137 c-14 -8 -65 -44 -113 -80 -81 -62 -91 -67 -137 -67 -30
0 -82 12 -133 31 -81 29 -87 29 -121 15 -32 -13 -42 -28 -102 -153 -67 -138
-235 -512 -313 -696 -24 -56 -39 -106 -36 -116 7 -23 56 -34 92 -20 14 5 83
67 152 138 69 70 152 144 184 165 l59 38 251 -7 c488 -15 587 -11 1217 44 365
32 604 58 635 67 74 24 248 110 280 139 48 46 29 51 -212 59 -348 11 -520 26
-698 63 -265 55 -492 142 -732 280 -203 117 -195 113 -223 113 -14 0 -36 -6
-50 -13z"/>
<path d="M10747 12354 c-225 -246 -590 -380 -1053 -387 -252 -3 -336 3 -602
44 -122 19 -135 19 -157 5 -37 -25 -142 -168 -251 -343 -20 -32 -18 -41 16
-58 45 -23 73 -19 168 29 l88 44 145 -67 c80 -37 180 -86 223 -109 84 -45 175
-72 330 -97 114 -18 307 -21 394 -5 275 49 589 263 699 475 64 124 95 239 96
365 2 97 -12 171 -32 169 -3 0 -32 -29 -64 -65z"/>
<path d="M13600 11784 c-9 -3 -26 -35 -39 -72 -210 -587 -943 -1041 -2118
-1311 -191 -44 -252 -52 -389 -52 -183 1 -295 25 -539 118 -128 49 -240 86
-485 158 -117 35 -131 37 -217 32 -103 -7 -227 -36 -308 -72 -30 -13 -110 -59
-177 -103 -168 -108 -182 -115 -249 -114 -116 2 -243 72 -439 242 -118 103
-214 170 -242 170 -15 0 -2 -25 64 -122 226 -335 422 -529 603 -598 54 -21 79
-24 250 -26 266 -3 341 -18 784 -154 141 -43 294 -90 341 -104 47 -14 106 -38
131 -55 161 -102 325 -364 492 -787 80 -201 138 -370 291 -844 96 -297 140
-406 178 -447 20 -21 22 -21 52 -6 111 57 340 269 501 463 583 704 1379 2135
1671 3006 51 153 94 358 94 448 0 75 -21 140 -59 177 -44 44 -132 69 -191 53z"/>
<path d="M12690 6721 c-93 -30 -146 -78 -189 -171 -22 -47 -25 -69 -25 -155 0
-86 3 -108 25 -155 35 -75 72 -116 133 -148 44 -23 63 -27 136 -27 73 0 92 4
136 27 61 32 98 73 133 148 22 47 25 69 25 155 0 86 -3 108 -25 155 -54 116
-130 169 -253 176 -39 2 -82 0 -96 -5z m165 -114 c24 -14 50 -40 65 -67 22
-40 25 -57 25 -145 0 -88 -3 -105 -25 -145 -67 -119 -233 -119 -300 0 -22 40
-25 57 -25 145 0 88 3 105 25 145 31 56 88 90 150 90 28 0 60 -9 85 -23z"/>
<path d="M9784 6703 c4 -10 57 -155 119 -323 l113 -305 70 -3 69 -3 115 313
c63 171 116 318 118 325 3 11 -10 13 -58 11 l-62 -3 -88 -248 c-48 -136 -90
-250 -92 -253 -3 -2 -45 109 -95 248 l-90 253 -62 3 c-57 3 -62 1 -57 -15z"/>
<path d="M10770 6395 l0 -325 215 0 215 0 0 50 0 50 -160 0 -160 0 0 95 0 95
140 0 140 0 0 50 0 50 -140 0 -140 0 0 80 0 80 155 0 155 0 0 50 0 50 -210 0
-210 0 0 -325z"/>
<path d="M11600 6395 l0 -325 55 0 55 0 0 130 0 130 63 0 62 -1 79 -129 79
-130 63 0 64 0 -87 137 c-52 81 -83 138 -76 140 65 22 123 106 123 178 0 53
-36 124 -78 152 -48 32 -117 43 -267 43 l-135 0 0 -325z m319 210 c33 -16 41
-33 41 -80 0 -76 -31 -95 -160 -95 l-90 0 0 95 0 95 90 0 c60 0 101 -5 119
-15z"/>
<path d="M11173 5601 c-83 -21 -148 -82 -190 -176 -27 -62 -25 -244 4 -307 33
-72 68 -112 125 -144 70 -38 177 -41 252 -6 l50 23 53 -53 c52 -51 53 -51 73
-33 l21 19 -39 40 c-66 71 -65 68 -37 122 49 96 56 230 18 338 -22 60 -82 130
-135 157 -43 22 -146 33 -195 20z m153 -62 c125 -38 182 -268 107 -427 l-17
-35 -57 64 c-57 63 -57 64 -78 45 l-21 -19 57 -65 c53 -60 56 -65 39 -78 -36
-26 -110 -34 -167 -20 -224 59 -227 481 -4 541 50 14 82 12 141 -6z"/>
<path d="M9840 5275 l0 -325 30 0 30 0 2 273 3 272 183 -272 c170 -255 185
-273 212 -273 l30 0 0 325 0 325 -30 0 -30 0 -2 -272 -3 -272 -183 272 c-170
253 -185 272 -213 272 l-29 0 0 -325z"/>
<path d="M10630 5275 l0 -325 30 0 30 0 0 325 0 325 -30 0 -30 0 0 -325z"/>
<path d="M11792 5357 c3 -237 4 -244 29 -292 31 -62 86 -101 162 -117 116 -24
228 23 276 117 25 48 26 55 29 292 l4 243 -31 0 -31 0 0 -221 c0 -145 -4 -236
-12 -262 -18 -59 -66 -103 -127 -116 -107 -23 -202 25 -229 116 -8 26 -12 117
-12 262 l0 221 -31 0 -31 0 4 -243z"/>
<path d="M12600 5275 l0 -325 205 0 205 0 0 25 0 25 -175 0 -175 0 0 130 0
130 150 0 150 0 0 25 0 25 -150 0 -150 0 0 120 0 120 170 0 170 0 0 25 0 25
-200 0 -200 0 0 -325z"/>
</g>
</svg>
